HIERARCHY
ROOT Hips
{
 OFFSET 0.000000 0.000000 0.000000
 CHANNELS 6 Xposition Yposition Zposition Yrotation Xrotation Zrotation
 JOINT Chest
 {
  OFFSET 0.000000 9.585900 0.002600
  CHANNELS 3 Yrotation Xrotation Zrotation
  JOINT Chest2
  {
   OFFSET 0.000000 9.601200 -0.005300
   CHANNELS 3 Yrotation Xrotation Zrotation
   JOINT Chest3
   {
    OFFSET 0.000000 9.561800 0.000000
    CHANNELS 3 Yrotation Xrotation Zrotation
    JOINT Chest4
    {
     OFFSET 0.000000 9.552100 0.000000
     CHANNELS 3 Yrotation Xrotation Zrotation
     JOINT Neck
     {
      OFFSET 0.000000 14.453000 0.000000
      CHANNELS 3 Yrotation Xrotation Zrotation
      JOINT Head
      {
       OFFSET 0.000000 8.936500 -0.011300
       CHANNELS 3 Yrotation Xrotation Zrotation
       End Site
       {
        OFFSET 0.000000 17.073600 -0.006000
       }
      }
     }
     JOINT RightCollar
     {
      OFFSET -2.921100 9.558500 0.000000
      CHANNELS 3 Yrotation Xrotation Zrotation
      JOINT RightShoulder
      {
       OFFSET -13.519700 0.000000 0.000000
       CHANNELS 3 Yrotation Xrotation Zrotation
       JOINT RightElbow
       {
        OFFSET 0.000000 -29.696600 0.000000
        CHANNELS 3 Yrotation Xrotation Zrotation
        JOINT RightWrist
        {
         OFFSET 0.000000 -24.004700 0.000000
         CHANNELS 3 Yrotation Xrotation Zrotation
         End Site
         {
          OFFSET 0.000000 -17.728500 0.000000
         }
        }
       }
      }
     }
     JOINT LeftCollar
     {
      OFFSET 2.921100 9.558500 0.000000
      CHANNELS 3 Yrotation Xrotation Zrotation
      JOINT LeftShoulder
      {
       OFFSET 13.519700 0.000000 0.000000
       CHANNELS 3 Yrotation Xrotation Zrotation
       JOINT LeftElbow
       {
        OFFSET 0.000000 -29.696600 0.000000
        CHANNELS 3 Yrotation Xrotation Zrotation
        JOINT LeftWrist
        {
         OFFSET 0.000000 -24.004700 0.000000
         CHANNELS 3 Yrotation Xrotation Zrotation
         End Site
         {
          OFFSET 0.000000 -17.728500 0.000000
         }
        }
       }
      }
     }
    }
   }
  }
 }
 JOINT RightHip
 {
  OFFSET -7.771700 -0.012900 -0.001300
  CHANNELS 3 Yrotation Xrotation Zrotation
  JOINT RightKnee
  {
   OFFSET 0.000000 -40.869800 0.001200
   CHANNELS 3 Yrotation Xrotation Zrotation
   JOINT RightAnkle
   {
    OFFSET 0.000000 -39.717900 0.002100
    CHANNELS 3 Yrotation Xrotation Zrotation
    JOINT RightToe
    {
     OFFSET 0.000000 -4.965400 11.033500
     CHANNELS 3 Yrotation Xrotation Zrotation
     End Site
     {
      OFFSET 0.000000 -1.423100 5.872300
     }
    }
   }
  }
 }
 JOINT LeftHip
 {
  OFFSET 7.771700 -0.012900 -0.001300
  CHANNELS 3 Yrotation Xrotation Zrotation
  JOINT LeftKnee
  {
   OFFSET 0.000000 -40.869800 0.001200
   CHANNELS 3 Yrotation Xrotation Zrotation
   JOINT LeftAnkle
   {
    OFFSET 0.000000 -39.717900 0.002100
    CHANNELS 3 Yrotation Xrotation Zrotation
    JOINT LeftToe
    {
     OFFSET 0.000000 -4.965400 11.033500
     CHANNELS 3 Yrotation Xrotation Zrotation
     End Site
     {
      OFFSET 0.000000 -1.423100 5.872300
     }
    }
   }
  }
 }
}
MOTION
Frames: 13
Frame Time: 0.008333
-34.072635 57.391720 23.196786 159.864432 -8.612787 0.492215 3.579070 8.818241 0.618990 0.183144 0.487417 -0.009864 0.301936 0.799459 -0.004289 3.120061 8.359241 -0.103373 3.669412 17.186781 -1.078684 7.143881 -3.729019 -3.234753 2.855590 9.034637 0.731473 -8.161059 -10.485007 -7.302339 -174.692829 -82.893642 -169.472113 -2.699566 5.362668 -31.468470 -6.290479 9.154091 -2.046306 15.085632 -10.575939 3.499602 135.457128 -79.833942 -151.571154 -1.359975 6.188386 14.658322 -12.783254 -63.728161 7.094782 -36.763150 72.030501 -37.898259 -3.281887 -7.374157 -0.870739 -0.323862 0.861030 -0.189031 1.645472 -66.079826 15.370033 40.163907 65.005484 33.098210 -17.997965 -9.771122 4.656353 -0.161882 -0.827280 -0.102404
-34.073206 57.385943 23.210297 159.864430 -8.726162 0.506074 3.595532 8.980624 0.587151 0.171513 0.454360 0.010729 0.326608 0.872562 -0.028934 3.134578 8.484696 -0.128756 3.749606 17.085447 -1.052871 7.288511 -3.913861 -3.220669 2.837318 9.022261 0.706513 -8.065328 -10.451583 -7.313407 -176.425046 -83.259986 -167.909269 -2.657407 5.358453 -31.342362 -6.306488 9.167066 -2.057085 14.946745 -10.651324 3.637876 135.361890 -80.000936 -151.383356 -1.375203 6.215406 14.678073 -12.735763 -63.629236 7.027625 -36.711068 72.033124 -37.845352 -3.281986 -7.355196 -0.880517 -0.313612 0.855680 -0.185982 1.665612 -65.967164 15.351862 40.167260 64.989360 33.083461 -17.980687 -9.781939 4.678971 -0.164490 -0.810828 -0.107631
-34.077352 57.379888 23.227636 159.861814 -8.814588 0.528809 3.611921 9.121400 0.544014 0.191276 0.518300 -0.013943 0.338721 0.919686 -0.035069 3.131216 8.536601 -0.130725 3.832158 16.983591 -1.029051 7.438274 -4.099358 -3.211235 2.827648 9.001757 0.682904 -7.971292 -10.417431 -7.321257 -178.891274 -83.653562 -165.641265 -2.598909 5.338158 -31.183135 -6.324072 9.173790 -2.074356 14.801602 -10.713626 3.778536 135.191620 -80.194889 -151.110672 -1.388586 6.243391 14.709238 -12.706778 -63.566670 6.966120 -36.650569 72.046995 -37.785308 -3.268888 -7.316738 -0.893903 -0.332827 0.831898 -0.188919 1.702709 -65.887828 15.333828 40.142174 64.994266 33.032576 -17.998951 -9.760245 4.694752 -0.164507 -0.842043 -0.093845
-34.079704 57.373285 23.252598 159.818983 -8.866724 0.528589 3.671211 9.227371 0.527297 0.191594 0.515310 -0.007841 0.355665 0.989088 -0.055090 3.137703 8.633071 -0.147136 3.916080 16.882549 -1.008020 7.591739 -4.282965 -3.207660 2.824969 8.973401 0.660063 -7.873212 -10.385528 -7.326462 177.650743 -84.071466 -162.417891 -2.521344 5.304842 -30.992102 -6.350029 9.172766 -2.098772 14.657678 -10.760386 3.920064 134.954654 -80.416791 -150.765511 -1.402343 6.269894 14.762274 -12.679575 -63.521990 6.967717 -36.554457 72.025188 -37.668785 -3.274686 -7.269834 -0.925745 -0.312219 0.824673 -0.181815 1.726781 -65.844837 15.374659 40.105639 65.003125 32.977386 -18.006414 -9.767701 4.710988 -0.173492 -0.835633 -0.091695
-34.078408 57.368716 23.269012 159.800648 -8.978342 0.518926 3.708636 9.394588 0.520923 0.184159 0.493863 0.004795 0.372954 1.053125 -0.073503 3.148414 8.750738 -0.172255 4.000303 16.784486 -0.988947 7.746387 -4.460890 -3.207817 2.832141 8.940315 0.638126 -7.772898 -10.359805 -7.328121 172.865774 -84.504782 -157.905934 -2.424145 5.260011 -30.777837 -6.391877 9.167956 -2.128078 14.515639 -10.793447 4.062545 134.637334 -80.669404 -150.326828 -1.419952 6.289628 14.839342 -12.674820 -63.419054 6.967910 -36.515613 72.020298 -37.631819 -3.261262 -7.238630 -0.925773 -0.324014 0.811686 -0.188920 1.743077 -65.745678 15.418206 40.034734 65.028236 32.908473 -18.058021 -9.797202 4.705896 -0.136473 -0.804515 -0.069516
-34.084735 57.364427 23.285898 159.822253 -9.074450 0.542288 3.703229 9.551063 0.474968 0.201918 0.563560 -0.020225 0.365212 1.024630 -0.054937 3.157543 8.863368 -0.198839 4.084047 16.692024 -0.971402 7.900367 -4.628281 -3.210316 2.847274 8.907159 0.615787 -7.663245 -10.345980 -7.326704 166.337529 -84.936607 -151.692659 -2.311929 5.207741 -30.550539 -6.448885 9.161956 -2.162484 14.368260 -10.815713 4.209207 134.197970 -80.960761 -149.747093 -1.440617 6.290571 14.937831 -12.649322 -63.342118 6.900742 -36.495203 72.024259 -37.626404 -3.251009 -7.230686 -0.919151 -0.328463 0.813975 -0.184226 1.779470 -65.650938 15.362906 40.023699 65.015272 32.875416 -18.055621 -9.810752 4.725842 -0.176152 -0.782054 -0.076492
-34.089425 57.359524 23.312423 159.831001 -9.121459 0.536000 3.714948 9.657759 0.457563 0.211431 0.597046 -0.030501 0.364771 1.030748 -0.051248 3.164919 8.969990 -0.226681 4.168542 16.607696 -0.955135 8.055886 -4.780302 -3.215151 2.862691 8.875745 0.594412 -7.526094 -10.345544 -7.328726 157.573761 -85.336507 -143.294957 -2.192883 5.151039 -30.311164 -6.511149 9.156049 -2.202894 14.213798 -10.830328 4.362021 133.583095 -81.297744 -148.984042 -1.457628 6.265005 15.063348 -12.665589 -63.300443 6.903177 -36.436113 72.010782 -37.558590 -3.259361 -7.216496 -0.921665 -0.324953 0.823752 -0.190991 1.790484 -65.616529 15.369387 39.967535 65.012163 32.803799 -18.056230 -9.807016 4.746871 -0.160613 -0.806431 -0.071640
-34.091856 57.354470 23.345911 159.793358 -9.135428 0.506916 3.773139 9.728527 0.466581 0.214576 0.611303 -0.033174 0.369987 1.054712 -0.055768 3.170243 9.071418 -0.257776 4.254597 16.532450 -0.938730 8.213892 -4.915344 -3.219834 2.877854 8.846210 0.577239 -7.352263 -10.358427 -7.340141 146.165636 -85.650658 -132.304954 -2.074040 5.096978 -30.071357 -6.569809 9.151156 -2.243463 14.053183 -10.845311 4.518104 132.730899 -81.688067 -147.986994 -1.459212 6.213914 15.222540 -12.708292 -63.282261 6.985958 -36.325292 71.967765 -37.426207 -3.270202 -7.152952 -0.962542 -0.314078 0.812563 -0.172038 1.864365 -65.628797 15.390646 39.863591 65.019067 32.717864 -18.089530 -9.802599 4.753730 -0.140484 -0.792050 -0.054051
-34.099200 57.351446 23.370347 159.813160 -9.193163 0.510831 3.758891 9.815234 0.448925 0.221387 0.653287 -0.052357 0.374877 1.078078 -0.060787 3.173361 9.169210 -0.293018 4.342105 16.465817 -0.921784 8.374008 -5.034345 -3.223524 2.896936 8.819946 0.565775 -7.138359 -10.388937 -7.364001 132.224698 -85.793631 -118.824164 -1.966981 5.074429 -29.853547 -6.613794 9.144904 -2.277880 13.880055 -10.872713 4.675286 131.526729 -82.140081 -146.646586 -1.440436 6.140085 15.415837 -12.733147 -63.235373 6.979656 -36.279005 71.955447 -37.389149 -3.270518 -7.128408 -0.961436 -0.311981 0.810546 -0.180542 1.927313 -65.583904 15.330898 39.797645 65.005034 32.652987 -18.090137 -9.797383 4.762417 -0.152414 -0.778583 -0.045143
-34.108736 57.348883 23.395763 159.818902 -9.242040 0.521756 3.756980 9.893386 0.425586 0.221403 0.659478 -0.054653 0.383630 1.133296 -0.084752 3.175117 9.263874 -0.330488 4.430363 16.408579 -0.904618 8.535002 -5.135845 -3.226566 2.918999 8.799243 0.559939 -6.879080 -10.436164 -7.403528 117.057502 -85.675635 -104.157802 -1.879094 5.135296 -29.664038 -6.640509 9.136094 -2.306064 13.690955 -10.919286 4.833311 129.838345 -82.660660 -144.828420 -1.408702 6.047404 15.637064 -12.740820 -63.195573 6.970082 -36.213658 71.933436 -37.336137 -3.269989 -7.102648 -0.962333 -0.308468 0.815299 -0.186316 2.003564 -65.545909 15.264172 39.749230 64.988237 32.599148 -18.075308 -9.789041 4.776968 -0.173459 -0.787409 -0.043774
-34.123987 57.345670 23.427455 159.873989 -9.243892 0.537082 3.711299 9.995770 0.332662 0.214003 0.593790 -0.002780 0.392183 1.181991 -0.110711 3.176595 9.355341 -0.366924 4.518095 16.362455 -0.887927 8.694654 -5.216683 -3.229530 2.943709 8.785090 0.557177 -6.574956 -10.492348 -7.460319 102.769447 -85.257868 -90.414504 -1.805406 5.328284 -29.499483 -6.657750 9.124034 -2.328421 13.482500 -10.985451 4.990656 127.573237 -83.260248 -142.424220 -1.367633 5.937615 15.875850 -12.806277 -63.203444 6.966222 -36.125585 71.908326 -37.266298 -3.274631 -7.070748 -0.966244 -0.300261 0.810744 -0.169512 2.094267 -65.556637 15.147965 39.726748 64.936959 32.529869 -18.069473 -9.728161 4.837706 -0.191204 -0.851298 -0.058819
-34.132341 57.344786 23.448395 159.903073 -9.318996 0.532018 3.688920 10.110120 0.299190 0.218954 0.614499 -0.001235 0.394005 1.195496 -0.120131 3.178382 9.441773 -0.399779 4.604733 16.328779 -0.872948 8.852182 -5.274316 -3.234413 2.972698 8.777398 0.555118 -6.234195 -10.546794 -7.532803 90.825482 -84.559369 -79.047908 -1.736172 5.671380 -29.359127 -6.668327 9.109757 -2.343890 13.245724 -11.072907 5.147784 124.667407 -83.952557 -139.353429 -1.314488 5.809699 16.129724 -12.859970 -63.133187 6.982366 -36.078253 71.896713 -37.241607 -3.277629 -7.055067 -0.954202 -0.296682 0.809232 -0.176850 2.175343 -65.501456 15.079579 39.670097 64.925690 32.474686 -18.088885 -9.708883 4.858241 -0.197832 -0.854402 -0.049339
-34.142582 57.343990 23.468867 159.934834 -9.388079 0.529418 3.668117 10.213173 0.260679 0.214204 0.631703 -0.002964 0.405401 1.209679 -0.125520 3.181895 9.519876 -0.428412 4.687941 16.308664 -0.859748 9.003115 -5.306897 -3.240432 3.001450 8.778826 0.554467 -5.867393 -10.589850 -7.615790 81.650885 -83.625932 -70.473929 -1.653489 6.160973 -29.220895 -6.672018 9.101410 -2.351569 12.972131 -11.189080 5.309273 121.048268 -84.745002 -135.538447 -1.254731 5.677097 16.403305 -12.934721 -63.071192 7.023737 -36.052266 71.881322 -37.251662 -3.304751 -7.034993 -0.928812 -0.268271 0.806112 -0.198762 2.238986 -65.447510 15.019595 39.624039 64.910567 32.418914 -18.106063 -9.687379 4.890514 -0.201045 -0.882491 -0.057457
